<svg width="15" height="15" viewBox="0 0 15 15" fill="none" xmlns="http://www.w3.org/2000/svg">
<g clip-path="url(#clip0_3_3994)">
<path d="M11.0327 7.02295H8.98516C8.80066 7.02295 8.65966 6.85645 8.68966 6.67495L9.41866 2.20945C9.46666 1.91695 9.10516 1.73995 8.90266 1.95595L3.74866 7.47146C3.57016 7.66346 3.70516 7.97695 3.96766 7.97695H6.01516C6.19966 7.97695 6.34066 8.14346 6.31066 8.32495L5.58166 12.7905C5.53366 13.083 5.89516 13.26 6.09766 13.044L11.2517 7.52846C11.4317 7.33645 11.2952 7.02295 11.0327 7.02295Z" fill="url(#paint0_linear_3_3994)"/>
<path d="M11.0327 7.02295H8.98516C8.80066 7.02295 8.65966 6.85645 8.68966 6.67495L9.41866 2.20945C9.46666 1.91695 9.10516 1.73995 8.90266 1.95595L3.74866 7.47146C3.57016 7.66346 3.70516 7.97695 3.96766 7.97695H6.01516C6.19966 7.97695 6.34066 8.14346 6.31066 8.32495L5.58166 12.7905C5.53366 13.083 5.89516 13.26 6.09766 13.044L11.2517 7.52846C11.4317 7.33645 11.2952 7.02295 11.0327 7.02295Z" fill="url(#paint1_linear_3_3994)"/>
</g>
<defs>
<linearGradient id="paint0_linear_3_3994" x1="7.50049" y1="1.86011" x2="7.50011" y2="16.4062" gradientUnits="userSpaceOnUse">
<stop stop-color="#FE9E58"/>
<stop offset="0.5" stop-color="#E959F3"/>
<stop offset="1" stop-color="#5033EF"/>
</linearGradient>
<linearGradient id="paint1_linear_3_3994" x1="7.50049" y1="1.86011" x2="7.50049" y2="13.1398" gradientUnits="userSpaceOnUse">
<stop stop-color="#FFC738"/>
<stop offset="1" stop-color="#FFA92D"/>
</linearGradient>
<clipPath id="clip0_3_3994">
<rect width="15" height="15" fill="white"/>
</clipPath>
</defs>
</svg>
